<svg width="12" height="12" viewBox="0 0 12 12" fill="none" xmlns="http://www.w3.org/2000/svg">
<path d="M4.7983 2.44269L4.47016 3.29997H2.10002C1.8515 3.29997 1.65002 3.50144 1.65002 3.74997V9.14997C1.65002 9.3985 1.8515 9.59997 2.10002 9.59997H5.23125C5.07046 9.53774 4.9133 9.46274 4.76127 9.37496C3.71627 8.77163 3.07253 7.65663 3.07253 6.44996C3.07253 5.2433 3.71627 4.1283 4.76127 3.52496C5.80628 2.92163 7.09377 2.92163 8.13877 3.52496C9.18378 4.1283 9.82752 5.2433 9.82752 6.44996C9.82752 7.65663 9.18378 8.77163 8.13877 9.37496C7.98675 9.46274 7.82959 9.53774 7.6688 9.59997H9.60002C9.84855 9.59997 10.05 9.3985 10.05 9.14997V3.74997C10.05 3.50144 9.84855 3.29997 9.60002 3.29997H8.44805L8.11991 2.44269C8.07547 2.3266 7.96404 2.24993 7.83973 2.24993H5.07848C4.95417 2.24993 4.84274 2.3266 4.7983 2.44269Z" fill="#C2CCDE" fill-opacity="0.25"/>
<path d="M3.58729 3.29996H2.41795L2.49759 2.93586C2.52771 2.79813 2.64968 2.69996 2.79066 2.69996H3.21458C3.35556 2.69996 3.47753 2.79813 3.50765 2.93586L3.58729 3.29996Z" fill="#C2CCDE" fill-opacity="0.25"/>
<path d="M7.62456 2.24996H5.28587L5.46971 1.82973C5.51748 1.72053 5.62536 1.64996 5.74456 1.64996H7.16587C7.28506 1.64996 7.39295 1.72053 7.44072 1.82973L7.62456 2.24996Z" fill="#C2CCDE" fill-opacity="0.25"/>
<path d="M4.76127 3.52496C5.80628 2.92163 7.09377 2.92163 8.13877 3.52496C9.18378 4.1283 9.82752 5.2433 9.82752 6.44996C9.82752 7.65663 9.18378 8.77163 8.13877 9.37496C7.09377 9.9783 5.80628 9.9783 4.76127 9.37496C3.71627 8.77163 3.07253 7.65663 3.07253 6.44996C3.07253 5.2433 3.71627 4.1283 4.76127 3.52496Z" fill="#C2CCDE" fill-opacity="0.25"/>
<path d="M5.41079 4.64997C6.05387 4.27869 6.84618 4.27869 7.48925 4.64997C8.13233 5.02125 8.52849 5.70741 8.52849 6.44997C8.52849 7.19253 8.13233 7.87869 7.48925 8.24997C6.84618 8.62125 6.05387 8.62125 5.41079 8.24997C4.76772 7.87869 4.37156 7.19253 4.37156 6.44997C4.37156 5.70741 4.76772 5.02125 5.41079 4.64997Z" fill="#C2CCDE" fill-opacity="0.25"/>
<path d="M4.76127 9.37496C4.9133 9.46274 5.07046 9.53774 5.23125 9.59997H2.10002C1.8515 9.59997 1.65002 9.3985 1.65002 9.14997V3.74997C1.65002 3.50144 1.8515 3.29997 2.10002 3.29997H4.47016L4.7983 2.44269C4.84274 2.3266 4.95417 2.24993 5.07848 2.24993H7.83973C7.96404 2.24993 8.07547 2.3266 8.11991 2.44269L8.44805 3.29997H9.60002C9.84855 3.29997 10.05 3.50144 10.05 3.74997V9.14997C10.05 9.3985 9.84855 9.59997 9.60002 9.59997H7.6688C7.82959 9.53774 7.98675 9.46274 8.13877 9.37496M4.76127 9.37496C3.71627 8.77163 3.07253 7.65663 3.07253 6.44996C3.07253 5.2433 3.71627 4.1283 4.76127 3.52496C5.80628 2.92163 7.09377 2.92163 8.13877 3.52496C9.18378 4.1283 9.82752 5.2433 9.82752 6.44996C9.82752 7.65663 9.18378 8.77163 8.13877 9.37496M4.76127 9.37496C5.80628 9.9783 7.09377 9.9783 8.13877 9.37496M5.4616 6.77078C5.42839 6.66857 5.4108 6.56043 5.4108 6.44978C5.4108 6.07857 5.60884 5.73555 5.93032 5.54994C6.09102 5.45716 6.27036 5.41076 6.44971 5.41074M3.58729 3.29996H2.41795L2.49759 2.93586C2.52771 2.79813 2.64968 2.69996 2.79066 2.69996H3.21458C3.35556 2.69996 3.47753 2.79813 3.50765 2.93586L3.58729 3.29996ZM7.62456 2.24996H5.28587L5.46971 1.82973C5.51748 1.72053 5.62536 1.64996 5.74456 1.64996H7.16587C7.28506 1.64996 7.39295 1.72053 7.44072 1.82973L7.62456 2.24996ZM4.37156 6.44997C4.37156 5.70741 4.76772 5.02125 5.41079 4.64997C6.05387 4.27869 6.84618 4.27869 7.48925 4.64997C8.13233 5.02125 8.52849 5.70741 8.52849 6.44997C8.52849 7.19253 8.13233 7.87869 7.48925 8.24997C6.84618 8.62125 6.05387 8.62125 5.41079 8.24997C4.76772 7.87869 4.37156 7.19253 4.37156 6.44997Z" stroke="#414141" stroke-width="0.5" stroke-linecap="round" stroke-linejoin="round"/>
</svg>
