<svg width="26" height="25" viewBox="0 0 26 25" fill="none" xmlns="http://www.w3.org/2000/svg">
<mask id="path-1-inside-1_1041_448" fill="white">
<path d="M12.9839 24.3436C19.6902 24.3436 25.1267 18.907 25.1267 12.2007C25.1267 5.4944 19.6902 0.0578613 12.9839 0.0578613C6.27755 0.0578613 0.841003 5.4944 0.841003 12.2007C0.841003 18.907 6.27755 24.3436 12.9839 24.3436Z"/>
<path d="M14.1981 7.34358C14.1981 8.01421 13.6545 8.55786 12.9839 8.55786C12.3132 8.55786 11.7696 8.01421 11.7696 7.34358C11.7696 6.67294 12.3132 6.12929 12.9839 6.12929C13.6545 6.12929 14.1981 6.67294 14.1981 7.34358Z"/>
</mask>
<path d="M12.4839 17.0579C12.4839 17.334 12.7077 17.5579 12.9839 17.5579C13.26 17.5579 13.4839 17.334 13.4839 17.0579H12.4839ZM13.4839 12.2007C13.4839 11.9246 13.26 11.7007 12.9839 11.7007C12.7077 11.7007 12.4839 11.9246 12.4839 12.2007H13.4839ZM13.4839 17.0579V12.2007H12.4839V17.0579H13.4839ZM24.1267 12.2007C24.1267 18.3547 19.1379 23.3436 12.9839 23.3436V25.3436C20.2425 25.3436 26.1267 19.4593 26.1267 12.2007H24.1267ZM12.9839 23.3436C6.82983 23.3436 1.841 18.3547 1.841 12.2007H-0.158997C-0.158997 19.4593 5.72526 25.3436 12.9839 25.3436V23.3436ZM1.841 12.2007C1.841 6.04669 6.82983 1.05786 12.9839 1.05786V-0.942139C5.72526 -0.942139 -0.158997 4.94212 -0.158997 12.2007H1.841ZM12.9839 1.05786C19.1379 1.05786 24.1267 6.04669 24.1267 12.2007H26.1267C26.1267 4.94212 20.2425 -0.942139 12.9839 -0.942139V1.05786ZM13.1981 7.34358C13.1981 7.46192 13.1022 7.55786 12.9839 7.55786V9.55786C14.2068 9.55786 15.1981 8.56649 15.1981 7.34358H13.1981ZM12.9839 7.55786C12.8655 7.55786 12.7696 7.46192 12.7696 7.34358H10.7696C10.7696 8.56649 11.7609 9.55786 12.9839 9.55786V7.55786ZM12.7696 7.34358C12.7696 7.22523 12.8655 7.12929 12.9839 7.12929V5.12929C11.7609 5.12929 10.7696 6.12066 10.7696 7.34358H12.7696ZM12.9839 7.12929C13.1022 7.12929 13.1981 7.22523 13.1981 7.34358H15.1981C15.1981 6.12066 14.2068 5.12929 12.9839 5.12929V7.12929Z" fill="#4CAC5B" mask="url(#path-1-inside-1_1041_448)"/>
</svg>
