<svg width="28" height="24" viewBox="0 0 28 24" fill="none" xmlns="http://www.w3.org/2000/svg">
<path d="M18.8572 16.8572V1.07153H0.642883V16.8572H18.8572ZM18.8572 16.8572H27.3572V10.7858L23.7143 7.14296H18.8572V16.8572ZM9.14288 19.893C9.14288 21.5695 7.78375 22.9287 6.10717 22.9287C4.43059 22.9287 3.07145 21.5695 3.07145 19.893C3.07145 18.2164 4.43059 16.8572 6.10717 16.8572C7.78375 16.8572 9.14288 18.2164 9.14288 19.893ZM24.9286 19.893C24.9286 21.5695 23.5695 22.9287 21.8929 22.9287C20.2163 22.9287 18.8572 21.5695 18.8572 19.893C18.8572 18.2164 20.2163 16.8572 21.8929 16.8572C23.5695 16.8572 24.9286 18.2164 24.9286 19.893Z" stroke="#4CAC5B" stroke-linecap="round" stroke-linejoin="round"/>
</svg>
