<svg width="18" height="22" viewBox="0 0 18 22" fill="none" xmlns="http://www.w3.org/2000/svg">
<path d="M11 1.00008H3C2.46957 1.00008 1.96086 1.21079 1.58579 1.58586C1.21071 1.96094 1 2.46964 1 3.00008V19.0001C1 19.5305 1.21071 20.0392 1.58579 20.4143C1.96086 20.7894 2.46957 21.0001 3 21.0001H15C15.5304 21.0001 16.0391 20.7894 16.4142 20.4143C16.7893 20.0392 17 19.5305 17 19.0001V7.00008M11 1.00008L17 7.00008M11 1.00008V7.00008H17M13 12.0001H5M13 16.0001H5M7 8.00008H5" stroke="#999999" stroke-linecap="round" stroke-linejoin="round"/>
</svg>
