<svg width="40" height="40" viewBox="0 0 40 40" fill="none" xmlns="http://www.w3.org/2000/svg">
<circle cx="20" cy="20" r="20" fill="#C8E6C9"/>
<path d="M17.846 24.3798L15.3776 21.9115C15.1285 21.6624 14.7026 21.8388 14.7026 22.1911L14.7026 24.4548C14.7026 24.7862 14.9712 25.0548 15.3026 25.0548L17.5664 25.0548C17.9187 25.0548 18.0951 24.6289 17.846 24.3798Z" fill="#C2CCDE" fill-opacity="0.25"/>
<path d="M16.6118 23.1456L24.8849 14.8725M15.3776 21.9115L17.846 24.3798C18.0951 24.6289 17.9187 25.0548 17.5664 25.0548L15.3026 25.0548C14.9712 25.0548 14.7026 24.7862 14.7026 24.4548L14.7026 22.1911C14.7026 21.8388 15.1285 21.6624 15.3776 21.9115Z" stroke="#388E3D" stroke-linecap="round" stroke-linejoin="round"/>
</svg>
