<svg width="21" height="21" viewBox="0 0 21 21" fill="none" xmlns="http://www.w3.org/2000/svg">
<path d="M19.56 9.78156C19.5637 11.1648 19.2405 12.5293 18.6168 13.764C17.8774 15.2435 16.7407 16.4879 15.3339 17.3579C13.9272 18.2278 12.306 18.6889 10.652 18.6896C9.26882 18.6932 7.90431 18.37 6.66964 17.7464L0.696045 19.7376L2.68724 13.764C2.06361 12.5293 1.74044 11.1648 1.74404 9.78156C1.74468 8.12757 2.20581 6.50641 3.07576 5.09968C3.94571 3.69295 5.19014 2.5562 6.66964 1.81677C7.90431 1.19313 9.26882 0.869959 10.652 0.873565H11.176C13.3604 0.994076 15.4236 1.91607 16.9706 3.46303C18.5175 5.00998 19.4395 7.07317 19.56 9.25756V9.78156Z" stroke="#999999" stroke-width="1.048" stroke-linecap="round" stroke-linejoin="round"/>
</svg>
