<svg width="4" height="18" viewBox="0 0 4 18" fill="none" xmlns="http://www.w3.org/2000/svg">
<path d="M0.598877 9C0.598877 9.55228 1.04659 10 1.59888 10C2.15116 10 2.59888 9.55228 2.59888 9C2.59888 8.44772 2.15116 8 1.59888 8C1.04659 8 0.598877 8.44772 0.598877 9Z" stroke="#999999" stroke-linecap="round" stroke-linejoin="round"/>
<path d="M0.598877 16C0.598877 16.5523 1.04659 17 1.59888 17C2.15116 17 2.59888 16.5523 2.59888 16C2.59888 15.4477 2.15116 15 1.59888 15C1.04659 15 0.598877 15.4477 0.598877 16Z" stroke="#999999" stroke-linecap="round" stroke-linejoin="round"/>
<path d="M0.598877 2C0.598877 2.55228 1.04659 3 1.59888 3C2.15116 3 2.59888 2.55228 2.59888 2C2.59888 1.44772 2.15116 1 1.59888 1C1.04659 1 0.598877 1.44772 0.598877 2Z" stroke="#999999" stroke-linecap="round" stroke-linejoin="round"/>
</svg>
