<svg width="40" height="40" viewBox="0 0 40 40" fill="none" xmlns="http://www.w3.org/2000/svg">
<circle cx="20" cy="20" r="20" fill="#FFCDD2"/>
<path d="M23.5457 17.8401L21.0773 15.3718C20.8282 15.1227 21.0046 14.6968 21.3569 14.6968L23.6207 14.6968C23.952 14.6968 24.2207 14.9654 24.2207 15.2968L24.2207 17.5605C24.2207 17.9128 23.7948 18.0892 23.5457 17.8401Z" fill="#C2CCDE" fill-opacity="0.25"/>
<path d="M22.3115 16.6059L14.0383 24.8791M21.0773 15.3718L23.5457 17.8401C23.7948 18.0892 24.2207 17.9128 24.2207 17.5605L24.2207 15.2968C24.2207 14.9654 23.952 14.6968 23.6207 14.6968L21.3569 14.6968C21.0046 14.6968 20.8282 15.1227 21.0773 15.3718Z" stroke="#D32F2F" stroke-linecap="round" stroke-linejoin="round"/>
</svg>
