<svg width="12" height="14" viewBox="0 0 12 14" fill="none" xmlns="http://www.w3.org/2000/svg">
<path d="M1.99999 13H9.99999C10.4418 13 10.8 12.6418 10.8 12.2C10.8 10.8767 9.97903 9.6923 8.73993 9.22789L8.49391 9.13568C6.88591 8.53301 5.11407 8.53301 3.50606 9.13568L3.26005 9.22789C2.02095 9.6923 1.19999 10.8767 1.19999 12.2C1.19999 12.6418 1.55816 13 1.99999 13Z" fill="#C2CCDE" fill-opacity="0.25"/>
<path d="M7.2197 6.77345C6.45411 7.16672 5.54587 7.16672 4.78028 6.77345C4.06777 6.40745 3.55728 5.74083 3.38967 4.95755L3.34494 4.7485C3.17354 3.9475 3.35662 3.11152 3.8471 2.45547L3.91893 2.3594C4.40948 1.70326 5.18074 1.31689 5.99999 1.31689C6.81923 1.31689 7.5905 1.70326 8.08105 2.3594L8.15287 2.45547C8.64336 3.11152 8.82643 3.9475 8.65504 4.7485L8.6103 4.95755C8.4427 5.74083 7.93221 6.40745 7.2197 6.77345Z" fill="#C2CCDE" fill-opacity="0.25"/>
<path d="M1.99999 13H9.99999C10.4418 13 10.8 12.6418 10.8 12.2C10.8 10.8767 9.97903 9.6923 8.73993 9.22789L8.49391 9.13568C6.88591 8.53301 5.11407 8.53301 3.50606 9.13568L3.26005 9.22789C2.02095 9.6923 1.19999 10.8767 1.19999 12.2C1.19999 12.6418 1.55816 13 1.99999 13Z" stroke="#414141" stroke-linecap="round" stroke-linejoin="round"/>
<path d="M7.2197 6.77345C6.45411 7.16672 5.54587 7.16672 4.78028 6.77345C4.06777 6.40745 3.55728 5.74083 3.38967 4.95755L3.34494 4.7485C3.17354 3.9475 3.35662 3.11152 3.8471 2.45547L3.91893 2.3594C4.40948 1.70326 5.18074 1.31689 5.99999 1.31689C6.81923 1.31689 7.5905 1.70326 8.08105 2.3594L8.15287 2.45547C8.64336 3.11152 8.82643 3.9475 8.65504 4.7485L8.6103 4.95755C8.4427 5.74083 7.93221 6.40745 7.2197 6.77345Z" stroke="#414141" stroke-linecap="round" stroke-linejoin="round"/>
</svg>
