<svg width="15" height="20" viewBox="0 0 15 20" fill="none" xmlns="http://www.w3.org/2000/svg">
<path d="M7.5 20C6.72666 20 3.05434 15.3457 2.1549 13.8479C0.810961 11.61 0 10.2586 0 7.68929C0 5.64996 0.790176 3.69416 2.1967 2.25214C3.60322 0.810119 5.51088 0 7.5 0C9.48912 0 11.3968 0.810119 12.8033 2.25214C14.2098 3.69416 15 5.64996 15 7.68929C15 10.155 14.1988 11.4871 12.8709 13.6943L12.7789 13.8479C11.8523 15.3879 8.25801 20 7.5 20ZM7.5 3.845C6.75825 3.845 6.03316 4.07051 5.41642 4.493C4.79968 4.91549 4.31898 5.516 4.03513 6.21858C3.75128 6.92116 3.67701 7.69427 3.82171 8.44012C3.96642 9.18598 4.32361 9.87109 4.8481 10.4088C5.3726 10.9466 6.04085 11.3128 6.76834 11.4611C7.49584 11.6095 8.24991 11.5333 8.9352 11.2423C9.62048 10.9513 10.2062 10.4585 10.6183 9.82617C11.0304 9.19386 11.2503 8.45047 11.2503 7.69C11.2492 6.67059 10.8538 5.69326 10.1507 4.97243C9.44759 4.2516 8.49431 3.84613 7.5 3.845Z" fill="#040406"/>
</svg>
