<svg width="20" height="20" viewBox="0 0 20 20" fill="none" xmlns="http://www.w3.org/2000/svg">
<path d="M3 19.0001H17C18.1046 19.0001 19 18.1046 19 17.0001V3.00008C19 1.89551 18.1046 1.00008 17 1.00008H3C1.89543 1.00008 1 1.89551 1 3.00008V17.0001C1 18.1046 1.89543 19.0001 3 19.0001ZM3 19.0001L14 8.00008L19 13.0001M8 6.50008C8 7.3285 7.32843 8.00008 6.5 8.00008C5.67157 8.00008 5 7.3285 5 6.50008C5 5.67165 5.67157 5.00008 6.5 5.00008C7.32843 5.00008 8 5.67165 8 6.50008Z" stroke="#999999" stroke-linecap="round" stroke-linejoin="round"/>
</svg>
