<svg width="10" height="14" viewBox="0 0 10 14" fill="none" xmlns="http://www.w3.org/2000/svg">
<path d="M1 5.35351C1 3.14438 2.79086 1.35352 5 1.35352C7.20914 1.35352 9 3.14438 9 5.35351V5.59445C9 6.47835 8.72382 7.34017 8.21006 8.05944L5.0079 12.5425C5.00403 12.5479 4.99597 12.5479 4.9921 12.5425L1.78994 8.05944C1.27618 7.34017 1 6.47835 1 5.59445V5.35351Z" fill="#C2CCDE" fill-opacity="0.25"/>
<path d="M5.78183 3.75387C5.28776 3.51594 4.71224 3.51594 4.21817 3.75387C3.7241 3.9918 3.36527 4.44177 3.24324 4.97639C3.12122 5.51102 3.24928 6.07211 3.59119 6.50085C3.93309 6.92959 4.45163 7.1793 5 7.1793C5.54837 7.1793 6.06691 6.92959 6.40881 6.50085C6.75072 6.07211 6.87878 5.51102 6.75676 4.97639C6.63474 4.44177 6.2759 3.9918 5.78183 3.75387Z" fill="#C2CCDE" fill-opacity="0.25"/>
<path d="M1 5.35351C1 3.14438 2.79086 1.35352 5 1.35352C7.20914 1.35352 9 3.14438 9 5.35351V5.59445C9 6.47835 8.72382 7.34017 8.21006 8.05944L5.0079 12.5425C5.00403 12.5479 4.99597 12.5479 4.9921 12.5425L1.78994 8.05944C1.27618 7.34017 1 6.47835 1 5.59445V5.35351Z" stroke="#5A5A5A" stroke-linecap="round" stroke-linejoin="round"/>
<path d="M5.78183 3.75387C5.28776 3.51594 4.71224 3.51594 4.21817 3.75387C3.7241 3.9918 3.36527 4.44177 3.24324 4.97639C3.12122 5.51102 3.24928 6.07211 3.59119 6.50085C3.93309 6.92959 4.45163 7.1793 5 7.1793C5.54837 7.1793 6.06691 6.92959 6.40881 6.50085C6.75072 6.07211 6.87878 5.51102 6.75676 4.97639C6.63474 4.44177 6.2759 3.9918 5.78183 3.75387Z" stroke="#5A5A5A" stroke-linecap="round" stroke-linejoin="round"/>
</svg>
