<svg width="40" height="40" viewBox="0 0 40 40" fill="none" xmlns="http://www.w3.org/2000/svg">
<circle cx="20" cy="20" r="20" fill="#4CAC5B" fill-opacity="0.5"/>
<path d="M16.3607 18.2438C17.2972 19.8905 18.6664 21.2597 20.3131 22.1961L21.1976 20.9578C21.4917 20.5462 22.0468 20.419 22.4908 20.6615C23.8976 21.43 25.4523 21.897 27.0741 22.0254C27.5942 22.0666 27.9952 22.5006 27.9952 23.0223V27.4851C27.9952 27.9978 27.6074 28.4274 27.0974 28.4798C26.5675 28.5343 26.0329 28.5617 25.4952 28.5617C16.9348 28.5617 9.99518 21.6221 9.99518 13.0617C9.99518 12.524 10.0226 11.9894 10.0771 11.4595C10.1295 10.9495 10.5591 10.5617 11.0718 10.5617H15.5346C16.0563 10.5617 16.4903 10.9627 16.5315 11.4828C16.6598 13.1046 17.1269 14.6593 17.8954 16.0661C18.1379 16.5101 18.0107 17.0652 17.5991 17.3593L16.3607 18.2438ZM13.8394 17.5869L15.7394 16.2298C15.2006 15.0668 14.8315 13.8335 14.6424 12.5617H12.0042C11.9982 12.728 11.9952 12.8947 11.9952 13.0617C11.9952 20.5175 18.0394 26.5617 25.4952 26.5617C25.6622 26.5617 25.8289 26.5587 25.9952 26.5526V23.9144C24.7234 23.7254 23.4901 23.3562 22.3271 22.8175L20.97 24.7175C20.421 24.5042 19.8908 24.2532 19.3826 23.9678L19.3245 23.9347C17.3649 22.8204 15.7365 21.192 14.6222 19.2324L14.5891 19.1743C14.3037 18.6661 14.0527 18.1359 13.8394 17.5869Z" fill="white"/>
</svg>
